<svg width="57" height="62" viewBox="0 0 57 62" fill="none" xmlns="http://www.w3.org/2000/svg">
<path d="M37.7402 50.375H19.2598C17.5156 49.043 15.8643 47.5091 14.3057 45.7734C13.0439 46.2578 11.8379 46.5 10.6875 46.5C7.71875 46.5 5.19531 45.3597 3.11719 43.0791C1.03906 40.7985 0 38.0638 0 34.875C0 32.332 0.686523 30.0615 2.05957 28.0635C3.43262 26.0654 5.19531 24.6628 7.34766 23.8555C7.38477 23.6133 7.40332 23.4115 7.40332 23.25H49.5967C49.7822 24.6628 49.875 27.2461 49.875 31C49.875 32.8164 49.4854 34.7135 48.7061 36.6914C47.9268 38.6693 46.9062 40.5059 45.6445 42.2012C44.3828 43.8965 43.0933 45.4202 41.7759 46.7725C40.4585 48.1247 39.1133 49.3255 37.7402 50.375ZM7.125 31C7.125 30.3945 7.14355 29.446 7.18066 28.1543C6.06738 28.8405 5.18604 29.779 4.53662 30.9697C3.88721 32.1605 3.5625 33.4622 3.5625 34.875C3.5625 37.0143 4.2583 38.8408 5.6499 40.3545C7.0415 41.8682 8.7207 42.625 10.6875 42.625C10.8359 42.625 11.1328 42.5846 11.5781 42.5039C8.60938 38.4271 7.125 34.5924 7.125 31ZM32.0625 11.625C32.0625 12.5534 32.2295 13.6634 32.5635 14.9551C34.0107 16.0853 34.957 17.5586 35.4023 19.375H31.8398C31.7656 18.8099 31.6729 18.3255 31.5615 17.9219C29.5205 16.388 28.5 14.2891 28.5 11.625C28.5 9.48568 29.1958 7.65918 30.5874 6.14551C31.979 4.63184 33.6582 3.875 35.625 3.875C36.1816 3.875 36.7754 3.95573 37.4062 4.11719C35.8477 4.5612 34.5674 5.4694 33.5654 6.8418C32.5635 8.21419 32.0625 9.80859 32.0625 11.625ZM21.375 7.75C21.375 8.67839 21.542 9.78841 21.876 11.0801C23.917 12.6543 24.9375 14.7734 24.9375 17.4375C24.9375 18.0026 24.8447 18.6484 24.6592 19.375H21.1523C21.3008 18.6484 21.375 18.0026 21.375 17.4375C21.375 16.4688 21.208 15.3385 20.874 14.0469C18.833 12.513 17.8125 10.4141 17.8125 7.75C17.8125 5.61068 18.5083 3.78418 19.8999 2.27051C21.2915 0.756836 22.9707 0 24.9375 0C25.4941 0 26.0879 0.0807292 26.7188 0.242188C25.1602 0.686198 23.8799 1.5944 22.8779 2.9668C21.876 4.33919 21.375 5.93359 21.375 7.75ZM42.75 62H14.25C12.209 62 10.0566 61.5661 7.79297 60.6982C5.5293 59.8304 3.66455 58.7809 2.19873 57.5498C0.73291 56.3187 0 55.2188 0 54.25H57C57 55.2188 56.2671 56.3187 54.8013 57.5498C53.3354 58.7809 51.4707 59.8304 49.207 60.6982C46.9434 61.5661 44.791 62 42.75 62Z" fill="black"/>
</svg>
